<svg xmlns="http://www.w3.org/2000/svg" xmlns:xlink="http://www.w3.org/1999/xlink" viewBox="0 0 144.41 127.6"><defs><linearGradient id="f6b3e0e3-7940-4d56-9b81-6cbfe8806712" x1="72.2" y1="107.55" x2="72.2" y2="6.05" gradientTransform="translate(61.31 -34.42) rotate(45)" gradientUnits="userSpaceOnUse"><stop offset="0.22" stop-color="#b49257"/><stop offset="1" stop-color="#e2c289"/></linearGradient></defs><title>attorneys</title><g id="fd88737c-86c8-4bdb-900e-f29d7f999afe" data-name="Layer 2"><g id="b73bbef2-3404-47b7-b373-c82e2832ecae" data-name="Layer 8"><circle cx="72.2" cy="56.8" r="50.75" transform="translate(-19.01 67.69) rotate(-45)" fill="url(#f6b3e0e3-7940-4d56-9b81-6cbfe8806712)"/><path d="M70.34,121.94c-.87,0-2-.07-3.45-.19l-.81-.9c-.16-.17-.3-.34-.44-.5a3.31,3.31,0,0,0-.52-2.72,9.05,9.05,0,0,0-2.41-2.22,13.25,13.25,0,0,0-1.5-.94,8,8,0,0,0,.74,4.62A4.43,4.43,0,0,0,65,121s-.72-1.15-1.38-2.29-1.27-2.31-1.27-2.31l.47.69c.28.42.68.94,1.08,1.48.7.94,1.45,1.88,1.63,2.11l.14.17.74.89-1.27-.12c-1.56-.17-3.35-.43-5.33-.81-.17-.23-.44-.6-.7-1-.13-.19-.26-.38-.37-.56a3.3,3.3,0,0,0-.22-2.75A10.06,10.06,0,0,0,56.32,114a15.38,15.38,0,0,0-1.39-1.08,7.88,7.88,0,0,0,.22,4.66,4.28,4.28,0,0,0,2.78,2.19s-.59-1.21-1.13-2.41-1-2.45-1-2.45l.39.74c.24.44.57,1,.91,1.61.59,1,1.22,2,1.39,2.24l.12.19c.24.4.49.77.63,1-1.84-.37-3.82-.85-5.92-1.48l-.08-.15c-.15-.24-.34-.56-.51-.9l-.32-.6a3.31,3.31,0,0,0,.07-2.76,6.08,6.08,0,0,0-.85-1.42,14.18,14.18,0,0,0-2.31-2.47,7.77,7.77,0,0,0-.26,4.64,3.91,3.91,0,0,0,1.22,1.71,5.25,5.25,0,0,0,1.32.76s-.47-1.26-.87-2.51S50,113,50,113l.32.77c.19.46.45,1.1.73,1.7.49,1,1,2.09,1.16,2.37l.1.2.52,1c-1.88-.58-3.84-1.28-5.86-2.12l-.13-.06-.07-.16-.41-1c-.08-.22-.17-.43-.25-.63a3.22,3.22,0,0,0,.36-2.73,10.05,10.05,0,0,0-1.59-2.87c-.31-.4-.59-.73-.8-1l-.34-.39a9.81,9.81,0,0,0-.56,1.52,6.14,6.14,0,0,0-.19,3.09,4.18,4.18,0,0,0,1,1.82,4.72,4.72,0,0,0,1.24.9l-.2-.81c-.12-.48-.28-1.12-.4-1.78-.27-1.32-.48-2.61-.48-2.61s.37,1.27.79,2.58c.37,1.11.8,2.22.9,2.48l.07.2.42,1.1a62.21,62.21,0,0,1-6.44-3.21c-.09-.28-.22-.73-.36-1.18-.06-.22-.12-.44-.18-.64A3.27,3.27,0,0,0,40,109a8.8,8.8,0,0,0-1.25-3,14.22,14.22,0,0,0-.95-1.49,8,8,0,0,0-1.3,4.5,4.55,4.55,0,0,0,1.93,3s-.17-1.35-.28-2.67c0-.66-.1-1.31-.14-1.8l0-.83s0,.34.13.83.23,1.15.35,1.8.29,1.33.4,1.83c.07.31.13.55.17.69l.07.28c.12.46.24.9.3,1.14a66.58,66.58,0,0,1-6-4c0-.28-.14-.73-.2-1.19,0-.23-.07-.46-.1-.67a3.23,3.23,0,0,0,1-2.57,6.7,6.7,0,0,0-.31-1.63,13.09,13.09,0,0,0-.56-1.54c-.21-.46-.41-.85-.55-1.13l-.24-.44a9.59,9.59,0,0,0-.91,1.34,6.1,6.1,0,0,0-.9,2.95,4.24,4.24,0,0,0,.57,2,5,5,0,0,0,1,1.15s0-1.33,0-2.66.15-2.64.15-2.64,0,1.32.16,2.68c.11,1.15.25,2.31.29,2.62l0,.22c.06.47.12.92.15,1.17a63.37,63.37,0,0,1-5.64-4.77c0-.29,0-.75-.07-1.22,0-.23,0-.46,0-.67a3.29,3.29,0,0,0,1.29-2.43,8.91,8.91,0,0,0-.49-3.24,13.33,13.33,0,0,0-.58-1.68A8,8,0,0,0,25.15,99a4.51,4.51,0,0,0,1.16,3.34s.16-1.35.37-2.66c.1-.64.21-1.29.29-1.78l.16-.81s0,.34-.07.84S27,99,27,99.71s0,1.36,0,1.87c0,.33,0,.58,0,.72v.28c0,.47,0,.93,0,1.17-.6-.57-1.19-1.16-1.77-1.76-.83-.86-1.64-1.76-2.43-2.67l0-1.21c0-.23,0-.46,0-.67a3.28,3.28,0,0,0,1.54-2.29,9.44,9.44,0,0,0-.16-3.28,15,15,0,0,0-.41-1.72A7.93,7.93,0,0,0,21.1,94a4.42,4.42,0,0,0,.82,3.45s.3-1.33.63-2.6.71-2.54.71-2.54l-.15.82c-.09.5-.17,1.15-.27,1.82-.18,1.33-.32,2.72-.32,2.72h0v.14c0,.45-.08.9-.1,1.15-1.38-1.63-2.7-3.33-3.95-5.12,0-.29.11-.74.19-1.2,0-.23.08-.46.12-.67a3.27,3.27,0,0,0,1.78-2.11,10.11,10.11,0,0,0,.19-3.28,14.66,14.66,0,0,0-.24-1.74,7.91,7.91,0,0,0-3.1,3.48,4.31,4.31,0,0,0,.45,3.51s.43-1.28.88-2.51,1-2.45,1-2.45l-.23.8c-.14.48-.33,1.14-.48,1.79-.27,1.11-.51,2.26-.57,2.57l-.05.22c-.11.46-.2.91-.24,1.15-.72-1-1.41-2.13-2.06-3.23-.48-.8-.93-1.61-1.37-2.43l0-.15.28-1,.2-.64a3.28,3.28,0,0,0,2-1.91,9.55,9.55,0,0,0,.55-3.24c0-1,0-1.76,0-1.76a10.93,10.93,0,0,0-1.39.83,6.09,6.09,0,0,0-2.07,2.3,4.29,4.29,0,0,0,.06,3.54l.35-.76c.2-.45.5-1,.81-1.64.61-1.19,1.25-2.33,1.25-2.33s-.51,1.22-1,2.5c-.25.64-.44,1.26-.61,1.75l-.23.71-.08.24c-.14.44-.28.87-.35,1.11q-1.31-2.46-2.4-5l.05-.14c.1-.27.24-.62.38-1l.25-.62a3.26,3.26,0,0,0,2.16-1.72,10.15,10.15,0,0,0,.85-3.17c.06-.5.09-.93.1-1.24l0-.51a7.82,7.82,0,0,0-3.74,2.78,4.22,4.22,0,0,0-.53,2,4.84,4.84,0,0,0,.26,1.5s.17-.28.42-.72.58-1,1-1.56c.72-1.13,1.47-2.2,1.47-2.2s-.63,1.17-1.23,2.4c-.49,1-1,2.13-1.07,2.4l-.09.2c-.19.43-.36.84-.46,1.07C11.11,79.86,10.4,78,9.8,76l0-.1c.13-.26.34-.68.56-1.09l.31-.6A3.22,3.22,0,0,0,13,72.75a9.76,9.76,0,0,0,1.18-3.07c.11-.48.17-.91.22-1.23s.09-.5.09-.5a10.41,10.41,0,0,0-1.53.54,6.05,6.05,0,0,0-2.49,1.85,4.3,4.3,0,0,0-.63,3.48l.49-.67c.29-.4.69-.94,1.12-1.46.83-1,1.68-2,1.68-2s-.74,1.09-1.46,2.25c-.37.58-.68,1.16-.94,1.6s-.3.53-.36.65l-.13.22-.58,1c-.56-1.9-1-3.83-1.42-5.77l.64-1,.38-.56a3.28,3.28,0,0,0,2.45-1.25,10.24,10.24,0,0,0,1.48-2.93c.15-.48.26-.9.34-1.21l.13-.49a10.56,10.56,0,0,0-1.58.39,6.06,6.06,0,0,0-2.65,1.59,4.31,4.31,0,0,0-1,3.4L9,67c.33-.37.78-.86,1.26-1.34.93-1,1.88-1.86,1.88-1.86s-.85,1-1.68,2.1c-.43.54-.8,1.09-1.1,1.5L8.91,68l-.15.21-.66.95c-.38-2-.68-4-.88-5.95L8,62.24l.43-.52a3.26,3.26,0,0,0,2.56-1A9.81,9.81,0,0,0,12.73,58c.2-.46.35-.87.46-1.17s.17-.48.17-.48A7.81,7.81,0,0,0,9,57.86a4.32,4.32,0,0,0-1.31,3.29l.62-.57c.36-.33.86-.77,1.38-1.2,1-.87,2-1.67,2-1.67s-.94.93-1.88,1.92-1.56,1.77-1.75,2l-.14.16-.76.89c0-.62-.1-1.23-.14-1.84-.11-1.61-.15-3.22-.13-4.81l.87-.87.48-.48a3.24,3.24,0,0,0,2.66-.7A6,6,0,0,0,12,52.75c.32-.45.67-.92.92-1.35a15.21,15.21,0,0,0,.82-1.56A7.86,7.86,0,0,0,9.23,50.9a3.82,3.82,0,0,0-1.31,1.64A5.35,5.35,0,0,0,7.57,54s1.08-.8,2.15-1.55S12,51.05,12,51.05l-.66.52c-.39.32-1,.74-1.43,1.19C9,53.51,8.18,54.31,8,54.53l-.17.16-.87.81c0-2.32.23-4.61.5-6.85l.9-.76.54-.41a3.31,3.31,0,0,0,2.74-.41,8.6,8.6,0,0,0,2.3-2.32c.61-.8,1-1.45,1-1.45a8.07,8.07,0,0,0-4.67.53,4.59,4.59,0,0,0-2,2.93s1.18-.67,2.35-1.29l1.6-.82.73-.36-.69.45-1.52,1c-1,.66-1.92,1.36-2.16,1.54l-.19.13c-.37.26-.7.52-.9.68.1-.74.2-1.48.32-2.21.22-1.56.56-3.08.92-4.57l1-.67.56-.35a3.19,3.19,0,0,0,2.73-.1,8.74,8.74,0,0,0,2.61-2c.34-.37.61-.7.8-.95l.33-.39a9.74,9.74,0,0,0-1.6-.32,6.06,6.06,0,0,0-3.06.33,4.51,4.51,0,0,0-2.34,2.66l.78-.32,1.72-.68c1.25-.47,2.48-.89,2.48-.89s-1.19.56-2.4,1.19c-.6.32-1.22.64-1.66.89l-.59.36-.26.15-1,.59.48-1.9c.35-1.11.69-2.22,1-3.31.14-.45.3-.89.47-1.33L12,33.73l.6-.28a3.26,3.26,0,0,0,2.75.22,6.79,6.79,0,0,0,1.46-.76,13.48,13.48,0,0,0,1.33-1,14.06,14.06,0,0,0,1.28-1.2,7.84,7.84,0,0,0-4.63-.52A4.21,4.21,0,0,0,13,31.33a5.13,5.13,0,0,0-.82,1.28l.8-.24c.48-.14,1.09-.33,1.75-.49,1.31-.32,2.59-.59,2.59-.59s-1.26.42-2.55.9c-1.05.43-2.12.9-2.4,1l-.21.09L11,33.78c.18-.45.36-.9.53-1.35q.94-2.34,2-4.52l1.12-.43.65-.21a3.27,3.27,0,0,0,2.72.52A8.72,8.72,0,0,0,21,26.35a14,14,0,0,0,1.44-1,8,8,0,0,0-4.58-1A4.46,4.46,0,0,0,15,26.4s1.33-.25,2.63-.44l1.78-.26c.48-.06.82-.08.82-.08l-.22,0-.59.14-1.77.47c-1.1.3-2.22.65-2.53.74l-.23.07c-.44.12-.86.26-1.09.34a54.1,54.1,0,0,1,3.5-6.12l.12-.19,1.17-.29.64-.15a3.36,3.36,0,0,0,2.65.85A8.71,8.71,0,0,0,25,20.45c.44-.24.83-.45,1.1-.61l.44-.26a10.35,10.35,0,0,0-1.39-.82,6.29,6.29,0,0,0-3-.74A4.65,4.65,0,0,0,19,19.77s1.36-.08,2.69-.12,2.62,0,2.62,0-1.3.15-2.64.35-2.71.44-2.71.44h0l-.14,0-1.13.23a63.6,63.6,0,0,1,4-5.49L23,15l.66-.07a3.21,3.21,0,0,0,2.5,1.12,9.67,9.67,0,0,0,3.23-.7c.47-.18.86-.36,1.14-.49a4.68,4.68,0,0,1,.46-.22,10.31,10.31,0,0,0-1.3-1,6,6,0,0,0-2.89-1A4.4,4.4,0,0,0,23.53,14l.83,0,1.85.15c1.33.12,2.62.28,2.62.28s-1.31,0-2.68,0c-.68,0-1.38,0-1.87.08l-.73.06-.26,0-1.2.1c1.5-1.79,3-3.35,4.37-4.71h1.89a3.26,3.26,0,0,0,2.38,1.39A10.48,10.48,0,0,0,34,11.07a13.91,13.91,0,0,0,1.68-.52,7.87,7.87,0,0,0-4-2.46,4.23,4.23,0,0,0-3.39,1s1.34.2,2.62.43c.64.11,1.31.28,1.79.38l.8.19L32.7,10c-.5-.06-1.18-.13-1.84-.16-1.13-.07-2.3-.11-2.62-.12H28l-1.18,0c1-.95,1.92-1.8,2.77-2.54,1.77-1.42,3.12-2.59,4.14-3.26l1.52-1.08,0-.07,1-.63,1-.55-.93.64c-.54.4-1.24,1-2,1.52s-1.43,1.08-1.92,1.55L31.55,6a5.14,5.14,0,0,0,1.66-.12,6.45,6.45,0,0,0,2.37-1,10.93,10.93,0,0,0,1.58-1.47,16.51,16.51,0,0,0,1.33-1.56A20.66,20.66,0,0,0,39.72,0a17.1,17.1,0,0,0-2.2.28,14.79,14.79,0,0,0-2.07.54,8.67,8.67,0,0,0-2,1.05,5.52,5.52,0,0,0-1.81,2,5.36,5.36,0,0,0-.49,1.53l-1.8,1.47c-.87.76-1.82,1.62-2.82,2.59,0-.22,0-.73,0-1.24l0-.51c0-.5.09-1.47.18-2.45,0-.73.15-1.42.22-1.95s.13-.88.13-.88,0,.35,0,.87,0,1.18,0,1.89c0,1.39.12,2.75.12,2.75A5.63,5.63,0,0,0,28.8,4.61,8.38,8.38,0,0,0,27.37.08a17.23,17.23,0,0,0-1.12,1.76,8,8,0,0,0-1.13,3.5,2.94,2.94,0,0,0,1.16,2.53l-.06.67c0,.52-.06,1-.08,1.3-1.38,1.36-2.84,2.91-4.33,4.68,0-.23-.06-.72-.1-1.21l0-.45,0-.58c0-.54,0-1.23,0-1.93,0-1.41,0-2.85,0-2.85s.12,1.4.28,2.75c.09.67.17,1.34.24,1.85l.14.85a5.41,5.41,0,0,0,1.24-3.47,7,7,0,0,0-1-3,9.56,9.56,0,0,0-.92-1.33,5,5,0,0,0-.3.53c-.17.34-.39.82-.61,1.36A8.39,8.39,0,0,0,20,10.58,3,3,0,0,0,21.37,13l0,.68c0,.49.05,1,.07,1.27a58.51,58.51,0,0,0-4.09,5.56c-.05-.21-.15-.72-.26-1.24,0-.14-.05-.27-.07-.4-.06-.46-.21-1.47-.33-2.52-.17-1.4-.3-2.85-.3-2.85s.28,1.38.61,2.72.67,2.63.67,2.63a5.17,5.17,0,0,0,.83-3.59,7,7,0,0,0-1.31-2.87,9,9,0,0,0-1.06-1.23l-.24.56a9.27,9.27,0,0,0-.48,1.4,9.16,9.16,0,0,0-.35,3.65A2.88,2.88,0,0,0,16.75,19c0,.22.07.45.11.69L17.09,21l-.1.14a56.9,56.9,0,0,0-3.56,6.24c-.07-.19-.24-.7-.38-1.21l-.15-.49c-.13-.48-.38-1.41-.61-2.36l-.46-1.92c-.06-.27-.11-.49-.13-.64l0-.24s.09.32.27.82.42,1.15.65,1.81c.49,1.3,1,2.54,1,2.54A5.24,5.24,0,0,0,14,22a8.35,8.35,0,0,0-2.83-3.79,16.91,16.91,0,0,0-.5,2,9,9,0,0,0,.11,3.67,2.88,2.88,0,0,0,1.92,2l.16.66c.15.5.3,1,.39,1.26-.7,1.44-1.37,2.94-2,4.49-.18.46-.36.93-.55,1.39l-.49-1.13L10,32.07c-.19-.48-.55-1.37-.9-2.3-.45-1.32-.88-2.69-.88-2.69s.57,1.27,1.16,2.49c.28.61.63,1.23.87,1.69l.41.75a6.2,6.2,0,0,0,.29-1.55,4.47,4.47,0,0,0-.28-2.14,8.49,8.49,0,0,0-3.25-3.48,16.52,16.52,0,0,0-.24,2.09,12.72,12.72,0,0,0,0,1.85,6.12,6.12,0,0,0,.46,1.78,2.93,2.93,0,0,0,2.13,1.79L10,33c.19.47.38.93.48,1.19-.16.43-.32.86-.46,1.3-.34,1.1-.69,2.21-1,3.33-.17.65-.33,1.3-.49,1.95l-.65-1.07-.18-.33-.33-.58c-.25-.46-.55-1.08-.86-1.71-.62-1.27-1.21-2.59-1.21-2.59S6,35.69,6.71,36.84l1,1.56c.27.42.48.7.48.7a5.17,5.17,0,0,0-.39-3.66A7.07,7.07,0,0,0,5.6,33.15a9.32,9.32,0,0,0-1.41-.8s0,.23,0,.6,0,.91,0,1.5A8.91,8.91,0,0,0,5.05,38a3,3,0,0,0,2.34,1.54l.33.61.63,1.13c-.36,1.49-.7,3-.92,4.56-.13.77-.24,1.55-.34,2.33-.12-.15-.47-.58-.78-1L6,46.73c-.28-.42-.82-1.21-1.35-2L3.61,43c-.29-.46-.47-.77-.47-.77l.54.69c.32.41.76.95,1.2,1.49.88,1.07,1.77,2.07,1.77,2.07a5.12,5.12,0,0,0-.85-3.59,8.29,8.29,0,0,0-3.91-2.64,13.45,13.45,0,0,0,.2,2.07A9.06,9.06,0,0,0,3.4,45.79,2.85,2.85,0,0,0,5.86,47c.12.18.25.37.37.57L7,48.69c-.27,2.24-.45,4.52-.5,6.83l-.84-.9-.33-.37c-.34-.37-1-1.11-1.63-1.87-.47-.55-.88-1.11-1.2-1.53L2,50.14s.94,1,1.92,2S6,54,6,54a5.88,5.88,0,0,0-.25-1.55,4.78,4.78,0,0,0-1-1.92A8.49,8.49,0,0,0,.5,48.3a16.88,16.88,0,0,0,.45,2,9.83,9.83,0,0,0,.65,1.75,6.51,6.51,0,0,0,1,1.52,2.94,2.94,0,0,0,2.61,1l.44.52c.34.38.67.76.86,1,0,1.59,0,3.19.12,4.8q.06.95.15,1.89l-1-.81-.48-.43c-.4-.36-1-1-1.7-1.59-1-1-2-2-2-2s1.07.9,2.14,1.75c.53.42,1.09.83,1.51,1.13l.69.5a5.54,5.54,0,0,0-1.59-3.32A8.52,8.52,0,0,0,0,56.23a4.71,4.71,0,0,0,.16.58c.12.36.29.85.52,1.39a8.2,8.2,0,0,0,2,3.06,2.92,2.92,0,0,0,2.7.69l.5.47,1,.88c.2,2,.5,4,.88,6l-1-.72-.37-.26L5.88,68c-.42-.32-1-.74-1.54-1.19-1.09-.88-2.18-1.83-2.18-1.83s1.16.79,2.31,1.52c.56.37,1.15.72,1.6,1l.74.42A5.49,5.49,0,0,0,4.9,64.71a7.16,7.16,0,0,0-3-1.14,9.48,9.48,0,0,0-1.62-.13L.53,64c.15.34.38.82.66,1.33a8.16,8.16,0,0,0,2.3,2.85,2.94,2.94,0,0,0,2.76.42l.54.41c.42.31.84.62,1,.79.4,1.93.87,3.85,1.43,5.75L8.19,75l-.37-.22-.51-.3c-.45-.28-1.08-.64-1.65-1-1.17-.78-2.35-1.61-2.35-1.61s1.23.67,2.45,1.28c.6.31,1.21.61,1.69.82l.78.35A5.45,5.45,0,0,0,6,71.31,7.09,7.09,0,0,0,3,70.47a9.26,9.26,0,0,0-1.62,0l.26.54c.18.33.46.78.79,1.27A8.25,8.25,0,0,0,5,74.92a2.94,2.94,0,0,0,2.78.14l.58.35,1.1.66,0,.06q.93,3,2.13,5.81l-1.16-.5-.51-.23-2.18-1c-1.23-.65-2.49-1.37-2.49-1.37s1.29.55,2.56,1c.63.25,1.3.47,1.78.64l.81.26a6.3,6.3,0,0,0-.84-1.33A4.49,4.49,0,0,0,7.86,78a8.55,8.55,0,0,0-4.74-.32,5.89,5.89,0,0,0,.33.51c.22.31.53.73.91,1.18a8.21,8.21,0,0,0,2.83,2.33A2.94,2.94,0,0,0,10,81.59l.61.29.95.45.25.11c.73,1.71,1.54,3.39,2.4,5L13,87.08l-.43-.15L12,86.74c-.49-.18-1.18-.41-1.82-.68-1.3-.53-2.62-1.12-2.62-1.12s1.34.42,2.65.78c.65.19,1.32.35,1.82.47l.84.19a5.57,5.57,0,0,0-2.76-2.45A7.1,7.1,0,0,0,7,83.71a8.73,8.73,0,0,0-1.58.35,11.61,11.61,0,0,0,1.39,1.56,8.25,8.25,0,0,0,3,2.06,2.91,2.91,0,0,0,2.75-.42l.64.24,1,.36.26.08c.43.8.87,1.59,1.33,2.37.67,1.12,1.37,2.22,2.11,3.29-.23,0-.73-.13-1.22-.25l-.52-.11c-.49-.12-1.42-.35-2.36-.6-.7-.18-1.36-.39-1.87-.55l-.86-.27s1.36.27,2.72.49,2.72.36,2.72.36a5.56,5.56,0,0,0-3-2.13,8.42,8.42,0,0,0-4.72.65,17.13,17.13,0,0,0,1.57,1.39,8.06,8.06,0,0,0,3.24,1.71,3,3,0,0,0,2.69-.7l.65.17,1.27.28c1.25,1.8,2.59,3.52,4,5.16l-1.26-.11L20.25,99c-.52-.07-1.39-.19-2.27-.33-.7-.12-1.42-.23-1.94-.34l-.87-.18s1.37.14,2.76.19,2.73.07,2.73.07a5.36,5.36,0,0,0-3.21-1.79,8.39,8.39,0,0,0-4.61,1.14A17.88,17.88,0,0,0,14.53,99a8.49,8.49,0,0,0,3.4,1.35,2.92,2.92,0,0,0,2.59-1l.69.08,1.3.15c.78.91,1.59,1.79,2.41,2.65.59.62,1.19,1.21,1.8,1.8l-1.25,0H25c-.15,0-.35,0-.57,0L22.52,104l-2-.14-.89-.09h.86l1.91-.09c1.38-.07,2.72-.19,2.72-.19A5.28,5.28,0,0,0,21.78,102a8.43,8.43,0,0,0-4.46,1.6,17.35,17.35,0,0,0,1.79,1.06,8.78,8.78,0,0,0,3.53,1,2.93,2.93,0,0,0,2.49-1.25l.69,0,1.29,0a62.92,62.92,0,0,0,5.69,4.8l-1.24.16-.51.05c-.5,0-1.46.14-2.45.21-1.4.07-2.84.09-2.84.09s1.38-.18,2.73-.41,2.69-.54,2.69-.54a6,6,0,0,0-1.4-.72,4.52,4.52,0,0,0-2.14-.32,6.79,6.79,0,0,0-3,1.15,9,9,0,0,0-1.29,1,4.23,4.23,0,0,0,.54.27c.35.16.84.36,1.39.55a12,12,0,0,0,1.79.5,6.34,6.34,0,0,0,1.83.07,2.92,2.92,0,0,0,2.31-1.54l.68,0c.51,0,1-.09,1.29-.13a67.58,67.58,0,0,0,6.06,4l-1.21.31-.41.11-.59.12-1.89.36-2,.33-.88.12.84-.21,1.83-.54c1.32-.39,2.6-.83,2.6-.83a5.28,5.28,0,0,0-3.63-.62,8.38,8.38,0,0,0-4,2.61,17.56,17.56,0,0,0,2,.6,9,9,0,0,0,3.67.14,2.92,2.92,0,0,0,2.12-1.8l.67-.15,1.26-.28A66.46,66.46,0,0,0,46.23,117l-1.16.44-.58.2c-.49.18-1.35.47-2.23.74-1.35.4-2.75.77-2.75.77s1.31-.51,2.56-1c.63-.26,1.25-.56,1.72-.78l.77-.37a6.76,6.76,0,0,0-1.53-.38,4.66,4.66,0,0,0-2.15.19,7,7,0,0,0-2.61,1.81,8.56,8.56,0,0,0-1,1.26l.58.15c.38.07.9.15,1.48.2a8.13,8.13,0,0,0,3.65-.29,3,3,0,0,0,1.9-2l.64-.22,1-.33.23-.09.08,0c2.06.86,4.06,1.57,6,2.16-.19.1-.65.34-1.13.57l-.46.22c-.46.22-1.33.62-2.23,1-.66.3-1.31.54-1.81.73l-.84.32s1.24-.63,2.43-1.3,2.35-1.42,2.35-1.42a5.85,5.85,0,0,0-1.56-.21,4.88,4.88,0,0,0-2.12.42,8.51,8.51,0,0,0-3.29,3.45,18.28,18.28,0,0,0,2.1.12,12,12,0,0,0,1.86-.14,6.12,6.12,0,0,0,1.74-.55,2.9,2.9,0,0,0,1.66-2.22l.62-.28c.35-.15.69-.32.95-.45l.23-.12c2.11.64,4.11,1.12,6,1.49-.17.12-.61.41-1.06.68l-.43.27c-.43.26-1.26.75-2.12,1.23-.63.36-1.25.68-1.73.92l-.8.4s1.17-.74,2.29-1.55,2.19-1.64,2.19-1.64a5.51,5.51,0,0,0-3.64.58A8.53,8.53,0,0,0,51,125.71a17.42,17.42,0,0,0,2.1-.09,8.25,8.25,0,0,0,3.51-1.05,2.89,2.89,0,0,0,1.43-2.38l.59-.34c.44-.26.87-.54,1.11-.69,2,.38,3.75.63,5.3.8l1.33.12-1,.81-.41.32c-.4.3-1.17.87-2,1.44-.57.41-1.17.83-1.61,1.12l-.75.48s1.07-.86,2.1-1.81,2-1.86,2-1.86a5.36,5.36,0,0,0-3.55,1,8.39,8.39,0,0,0-2.49,4,16.3,16.3,0,0,0,2.07-.3,8.67,8.67,0,0,0,3.38-1.43,2.91,2.91,0,0,0,1.15-2.52l.55-.42,1-.8c1.41.11,2.56.18,3.43.18l1.87,0V122Z" fill="#b49257"/><path d="M74.07,121.94c.87,0,2-.07,3.44-.19l.82-.9.44-.5a3.29,3.29,0,0,1,.51-2.72,9.24,9.24,0,0,1,2.42-2.22,13.75,13.75,0,0,1,1.49-.94,7.91,7.91,0,0,1-.73,4.62,4.47,4.47,0,0,1-3,1.88s.72-1.15,1.38-2.29,1.27-2.31,1.27-2.31l-.47.69c-.29.42-.68.94-1.09,1.48-.7.94-1.44,1.88-1.63,2.11l-.13.17c-.3.35-.59.7-.74.89l1.27-.12c1.55-.17,3.35-.43,5.33-.81.17-.23.43-.6.69-1l.38-.56a3.26,3.26,0,0,1,.22-2.75A9.86,9.86,0,0,1,88.09,114a13.89,13.89,0,0,1,1.39-1.08,7.92,7.92,0,0,1-.23,4.66,4.26,4.26,0,0,1-2.77,2.19s.59-1.21,1.12-2.41,1-2.45,1-2.45l-.39.74c-.24.44-.56,1-.91,1.61-.58,1-1.22,2-1.38,2.24l-.13.19c-.24.4-.48.77-.62,1,1.83-.37,3.82-.85,5.91-1.48l.09-.15c.14-.24.33-.56.51-.9l.32-.6a3.27,3.27,0,0,1-.07-2.76,6,6,0,0,1,.84-1.42,14.79,14.79,0,0,1,2.32-2.47,7.81,7.81,0,0,1,.25,4.64,4,4,0,0,1-1.21,1.71,5.25,5.25,0,0,1-1.32.76s.46-1.26.87-2.51.74-2.54.74-2.54-.12.31-.31.77-.45,1.1-.74,1.7c-.48,1-1,2.09-1.15,2.37l-.1.2c-.2.41-.41.82-.53,1,1.88-.58,3.84-1.28,5.87-2.12l.12-.06.08-.16c.11-.26.25-.61.4-1l.25-.63a3.26,3.26,0,0,1-.35-2.73,9.82,9.82,0,0,1,1.59-2.87c.3-.4.59-.73.8-1l.33-.39a10.42,10.42,0,0,1,.57,1.52,6.14,6.14,0,0,1,.18,3.09,4.09,4.09,0,0,1-1,1.82,4.54,4.54,0,0,1-1.23.9l.2-.81c.12-.48.27-1.12.4-1.78.26-1.32.47-2.61.47-2.61s-.36,1.27-.78,2.58c-.37,1.11-.8,2.22-.91,2.48l-.07.2c-.16.44-.33.87-.42,1.1a63.35,63.35,0,0,0,6.45-3.21c.08-.28.22-.73.35-1.18.06-.22.13-.44.18-.64a3.31,3.31,0,0,1-.68-2.67,9,9,0,0,1,1.25-3,16.51,16.51,0,0,1,1-1.49,8,8,0,0,1,1.3,4.5,4.51,4.51,0,0,1-1.92,3s.16-1.35.28-2.67c0-.66.1-1.31.13-1.8l0-.83s0,.34-.13.83-.23,1.15-.36,1.8-.29,1.33-.4,1.83c-.07.31-.13.55-.16.69s0,.19-.08.28c-.11.46-.23.9-.29,1.14a65.09,65.09,0,0,0,6-4c.06-.28.14-.73.21-1.19,0-.23.06-.46.09-.67a3.3,3.3,0,0,1-1-2.57,6.28,6.28,0,0,1,.32-1.63,13.09,13.09,0,0,1,.56-1.54c.2-.46.4-.85.55-1.13L112,100a9.59,9.59,0,0,1,.91,1.34,6.2,6.2,0,0,1,.89,2.95,4,4,0,0,1-.57,2,4.81,4.81,0,0,1-1,1.15s0-1.33,0-2.66-.15-2.64-.15-2.64,0,1.32-.16,2.68c-.11,1.15-.26,2.31-.29,2.62l0,.22c-.06.47-.11.92-.14,1.17a63.37,63.37,0,0,0,5.64-4.77c0-.29,0-.75.06-1.22,0-.23,0-.46,0-.67a3.26,3.26,0,0,1-1.3-2.43,8.91,8.91,0,0,1,.5-3.24,14.48,14.48,0,0,1,.57-1.68A8,8,0,0,1,119.26,99a4.47,4.47,0,0,1-1.17,3.34s-.16-1.35-.36-2.66c-.11-.64-.21-1.29-.29-1.78l-.16-.81s0,.34.06.84,0,1.16.08,1.83,0,1.36,0,1.87c0,.33,0,.58,0,.72v.28c0,.47,0,.93,0,1.17.59-.57,1.19-1.16,1.77-1.76.82-.86,1.63-1.76,2.43-2.67l-.06-1.21c0-.23,0-.46,0-.67A3.29,3.29,0,0,1,120,95.15a9.21,9.21,0,0,1,.17-3.28,12.8,12.8,0,0,1,.41-1.72A7.94,7.94,0,0,1,123.3,94a4.42,4.42,0,0,1-.82,3.45s-.29-1.33-.62-2.6-.72-2.54-.72-2.54l.15.82c.09.5.18,1.15.27,1.82.18,1.33.32,2.72.32,2.72h0l0,.14c0,.45.07.9.09,1.15a64.42,64.42,0,0,0,4-5.12c0-.29-.1-.74-.18-1.2-.05-.23-.09-.46-.13-.67a3.29,3.29,0,0,1-1.77-2.11,10.11,10.11,0,0,1-.19-3.28,14.66,14.66,0,0,1,.24-1.74A7.86,7.86,0,0,1,127,88.27a4.28,4.28,0,0,1-.45,3.51s-.42-1.28-.88-2.51-1-2.45-1-2.45l.24.8c.13.48.33,1.14.47,1.79.27,1.11.52,2.26.58,2.57l.05.22c.1.46.19.91.24,1.15.71-1,1.4-2.13,2.06-3.23.47-.8.92-1.61,1.37-2.43l0-.15c-.08-.28-.19-.64-.29-1l-.19-.64a3.28,3.28,0,0,1-2-1.91,9.82,9.82,0,0,1-.56-3.24c0-1,0-1.76,0-1.76a10.18,10.18,0,0,1,1.39.83,6,6,0,0,1,2.08,2.3,4.37,4.37,0,0,1-.06,3.54l-.35-.76c-.21-.45-.5-1-.81-1.64-.62-1.19-1.25-2.33-1.25-2.33s.5,1.22,1,2.5c.26.64.45,1.26.61,1.75l.23.71.08.24.36,1.11q1.29-2.46,2.4-5l0-.14c-.11-.27-.25-.62-.38-1l-.26-.62a3.24,3.24,0,0,1-2.15-1.72,10.16,10.16,0,0,1-.86-3.17c-.05-.5-.08-.93-.09-1.24l0-.51a7.82,7.82,0,0,1,3.74,2.78,4.12,4.12,0,0,1,.54,2,5.11,5.11,0,0,1-.27,1.5s-.17-.28-.42-.72-.58-1-1-1.56c-.73-1.13-1.47-2.2-1.47-2.2s.62,1.17,1.23,2.4c.49,1,.95,2.13,1.07,2.4l.09.2c.18.43.36.84.46,1.07q1.17-2.81,2.09-5.71l0-.1c-.14-.26-.35-.68-.56-1.09l-.32-.6a3.21,3.21,0,0,1-2.31-1.48,9.76,9.76,0,0,1-1.18-3.07c-.11-.48-.17-.91-.23-1.23L130,68a10.88,10.88,0,0,1,1.53.54A6,6,0,0,1,134,70.34a4.35,4.35,0,0,1,.64,3.48l-.49-.67c-.29-.4-.7-.94-1.12-1.46-.84-1-1.69-2-1.69-2s.74,1.09,1.46,2.25c.38.58.69,1.16.95,1.6s.29.53.36.65l.13.22.57,1c.56-1.9,1-3.83,1.43-5.77l-.65-1-.37-.56a3.25,3.25,0,0,1-2.45-1.25,9.75,9.75,0,0,1-1.48-2.93c-.16-.48-.27-.9-.34-1.21l-.13-.49a10.3,10.3,0,0,1,1.57.39A6,6,0,0,1,135,64.18a4.32,4.32,0,0,1,1,3.4l-.56-.62c-.32-.37-.78-.86-1.25-1.34-.94-1-1.88-1.86-1.88-1.86s.84,1,1.68,2.1c.42.54.79,1.09,1.09,1.5l.43.61.15.21.66.95c.38-2,.67-4,.87-5.95-.18-.23-.46-.59-.75-.94l-.42-.52a3.27,3.27,0,0,1-2.57-1A10,10,0,0,1,131.68,58c-.2-.46-.36-.87-.46-1.17L131,56.3a7.79,7.79,0,0,1,4.4,1.56,4.29,4.29,0,0,1,1.31,3.29l-.61-.57c-.37-.33-.86-.77-1.38-1.2-1-.87-2.06-1.67-2.06-1.67s.94.93,1.88,1.92,1.57,1.77,1.75,2l.14.16.76.89c.06-.62.11-1.23.15-1.84.11-1.61.14-3.22.12-4.81l-.86-.87-.48-.48a3.23,3.23,0,0,1-2.66-.7,5.69,5.69,0,0,1-1.12-1.22c-.33-.45-.67-.92-.93-1.35a15.21,15.21,0,0,1-.82-1.56,7.89,7.89,0,0,1,4.55,1.06,4,4,0,0,1,1.31,1.64,5.27,5.27,0,0,1,.34,1.49s-1.07-.8-2.15-1.55-2.24-1.43-2.24-1.43l.66.52c.39.32.94.74,1.42,1.19.85.75,1.7,1.55,1.93,1.77l.18.16.87.81a66.88,66.88,0,0,0-.51-6.85l-.89-.76-.54-.41a3.31,3.31,0,0,1-2.74-.41,8.6,8.6,0,0,1-2.3-2.32c-.62-.8-1-1.45-1-1.45a8.07,8.07,0,0,1,4.67.53,4.57,4.57,0,0,1,2,2.93s-1.18-.67-2.35-1.29l-1.6-.82-.73-.36.69.45,1.52,1c1,.66,1.92,1.36,2.17,1.54l.19.13c.36.26.7.52.89.68-.09-.74-.2-1.48-.31-2.21-.23-1.56-.56-3.08-.93-4.57l-1-.67-.56-.35a3.22,3.22,0,0,1-2.74-.1,8.7,8.7,0,0,1-2.6-2c-.34-.37-.62-.7-.81-.95l-.32-.39a9.75,9.75,0,0,1,1.59-.32,6,6,0,0,1,3.06.33,4.51,4.51,0,0,1,2.34,2.66l-.77-.32-1.72-.68c-1.25-.47-2.48-.89-2.48-.89s1.18.56,2.39,1.19c.6.32,1.22.64,1.66.89l.6.36.25.15,1,.59-.48-1.9-1-3.31c-.14-.45-.31-.89-.48-1.33l-1.1-.54-.61-.28a3.23,3.23,0,0,1-2.74.22,6.57,6.57,0,0,1-1.46-.76A14.31,14.31,0,0,1,125,30.74a7.84,7.84,0,0,1,4.63-.52,4.21,4.21,0,0,1,1.79,1.11,4.61,4.61,0,0,1,.82,1.28l-.79-.24c-.49-.14-1.1-.33-1.76-.49-1.3-.32-2.59-.59-2.59-.59s1.26.42,2.55.9c1,.43,2.12.9,2.41,1l.21.09,1.07.48-.52-1.35q-.94-2.34-2-4.52l-1.11-.43-.65-.21a3.28,3.28,0,0,1-2.72.52,8.72,8.72,0,0,1-2.93-1.44,14.93,14.93,0,0,1-1.45-1,8,8,0,0,1,4.59-1,4.51,4.51,0,0,1,2.83,2.11s-1.33-.25-2.64-.44L125,25.7c-.48-.06-.82-.08-.82-.08l.23,0,.58.14,1.77.47c1.11.3,2.23.65,2.54.74l.23.07c.44.12.85.26,1.09.34a57.34,57.34,0,0,0-3.5-6.12l-.13-.19-1.17-.29-.64-.15a3.34,3.34,0,0,1-2.64.85,8.77,8.77,0,0,1-3.11-1.07l-1.1-.61-.44-.26a10.94,10.94,0,0,1,1.4-.82,6.25,6.25,0,0,1,3-.74,4.6,4.6,0,0,1,3.08,1.75s-1.36-.08-2.68-.12-2.62,0-2.62,0,1.3.15,2.64.35,2.71.44,2.71.44h0l.14,0,1.12.23a63.57,63.57,0,0,0-4-5.49L121.41,15l-.67-.07a3.19,3.19,0,0,1-2.5,1.12,9.56,9.56,0,0,1-3.22-.7c-.47-.18-.87-.36-1.15-.49s-.45-.22-.45-.22a9.72,9.72,0,0,1,1.29-1,6.12,6.12,0,0,1,2.89-1A4.38,4.38,0,0,1,120.87,14l-.82,0-1.85.15c-1.34.12-2.63.28-2.63.28s1.32,0,2.69,0c.68,0,1.37,0,1.87.08l.73.06.26,0,1.19.1c-1.5-1.79-3-3.35-4.36-4.71h-1.89a3.26,3.26,0,0,1-2.38,1.39,10.45,10.45,0,0,1-3.26-.38,14.5,14.5,0,0,1-1.69-.52,7.92,7.92,0,0,1,4-2.46,4.19,4.19,0,0,1,3.38,1s-1.33.2-2.62.43c-.63.11-1.3.28-1.78.38l-.81.19.83-.1c.51-.06,1.19-.13,1.85-.16,1.13-.07,2.3-.11,2.61-.12h.24l1.18,0c-1-.95-1.92-1.8-2.77-2.54-1.76-1.42-3.11-2.59-4.13-3.26l-1.52-1.08,0-.07-1-.63-1-.55.92.64c.54.4,1.25,1,2,1.52s1.43,1.08,1.91,1.55l.84.74a5.14,5.14,0,0,1-1.66-.12,6.31,6.31,0,0,1-2.37-1,11,11,0,0,1-1.59-1.47,16.35,16.35,0,0,1-1.32-1.56A19.66,19.66,0,0,1,104.68,0a17.1,17.1,0,0,1,2.2.28A14.56,14.56,0,0,1,109,.82a8.67,8.67,0,0,1,2,1.05,5.57,5.57,0,0,1,1.8,2,4.79,4.79,0,0,1,.49,1.53l1.81,1.47c.86.76,1.81,1.62,2.81,2.59,0-.22,0-.73,0-1.24l0-.51c0-.5-.1-1.47-.18-2.45-.06-.73-.15-1.42-.23-1.95l-.12-.88s0,.35,0,.87,0,1.18,0,1.89c0,1.39-.12,2.75-.12,2.75a5.75,5.75,0,0,1-1.58-3.33A8.44,8.44,0,0,1,117,.08a19.56,19.56,0,0,1,1.12,1.76,8,8,0,0,1,1.12,3.5,2.93,2.93,0,0,1-1.15,2.53l.05.67c0,.52.07,1,.09,1.3,1.37,1.36,2.84,2.91,4.33,4.68,0-.23.06-.72.1-1.21l0-.45,0-.58c0-.54,0-1.23,0-1.93,0-1.41,0-2.85,0-2.85s-.12,1.4-.28,2.75c-.08.67-.17,1.34-.23,1.85l-.14.85a5.36,5.36,0,0,1-1.24-3.47,7,7,0,0,1,1-3,8.63,8.63,0,0,1,.92-1.33s.12.19.29.53.4.82.62,1.36a8.7,8.7,0,0,1,.77,3.57A3,3,0,0,1,123,13l0,.68c0,.49-.06,1-.07,1.27A62.2,62.2,0,0,1,127,20.5c0-.21.15-.72.25-1.24,0-.14,0-.27.07-.4.07-.46.21-1.47.34-2.52.17-1.4.3-2.85.3-2.85s-.29,1.38-.61,2.72-.67,2.63-.67,2.63a5.06,5.06,0,0,1-.83-3.59,7,7,0,0,1,1.3-2.87,9.85,9.85,0,0,1,1.06-1.23l.25.56a10.55,10.55,0,0,1,.48,1.4,9.15,9.15,0,0,1,.34,3.65A2.86,2.86,0,0,1,127.65,19c0,.22-.06.45-.11.69-.09.5-.17,1-.22,1.29l.09.14A56.93,56.93,0,0,1,131,27.33c.06-.19.24-.7.38-1.21,0-.17.1-.33.14-.49.13-.48.38-1.41.62-2.36l.46-1.92c.06-.27.1-.49.13-.64s0-.24,0-.24-.09.32-.26.82l-.66,1.81c-.48,1.3-1,2.54-1,2.54a5.31,5.31,0,0,1-.37-3.67,8.28,8.28,0,0,1,2.83-3.79,19.57,19.57,0,0,1,.5,2,9,9,0,0,1-.12,3.67,2.89,2.89,0,0,1-1.91,2l-.17.66c-.14.5-.3,1-.38,1.26q1,2.16,2,4.49c.17.46.36.93.54,1.39l.5-1.13.2-.48c.19-.48.56-1.37.91-2.3.45-1.32.87-2.69.87-2.69s-.56,1.27-1.15,2.49c-.29.61-.64,1.23-.88,1.69l-.41.75a6.7,6.7,0,0,1-.29-1.55,4.61,4.61,0,0,1,.29-2.14A8.49,8.49,0,0,1,137,24.84a19.07,19.07,0,0,1,.24,2.09,12.75,12.75,0,0,1,0,1.85,6.12,6.12,0,0,1-.45,1.78,3,3,0,0,1-2.14,1.79l-.24.64-.49,1.19c.17.43.33.86.46,1.3q.53,1.65,1.05,3.33c.16.65.33,1.3.49,1.95.12-.19.38-.63.64-1.07l.19-.33c.08-.14.19-.33.32-.58.26-.46.55-1.08.87-1.71.61-1.27,1.21-2.59,1.21-2.59s-.72,1.21-1.46,2.36c-.37.57-.75,1.13-1,1.56s-.49.7-.49.7a5.28,5.28,0,0,1,.39-3.66,7.17,7.17,0,0,1,2.22-2.29,9.91,9.91,0,0,1,1.41-.8,3.87,3.87,0,0,1,0,.6c0,.38,0,.91,0,1.5a8.92,8.92,0,0,1-.86,3.55A3,3,0,0,1,137,39.54l-.32.61-.63,1.13c.36,1.49.69,3,.92,4.56.12.77.23,1.55.33,2.33.12-.15.47-.58.78-1l.29-.41c.28-.42.82-1.21,1.36-2,.38-.61.77-1.21,1.06-1.67s.47-.77.47-.77l-.54.69-1.21,1.49c-.88,1.07-1.77,2.07-1.77,2.07a5.14,5.14,0,0,1,.86-3.59,8.29,8.29,0,0,1,3.91-2.64,13.45,13.45,0,0,1-.2,2.07A9.23,9.23,0,0,1,141,45.79,2.87,2.87,0,0,1,138.54,47c-.11.18-.24.37-.37.57-.32.43-.63.85-.79,1.08.27,2.24.44,4.52.49,6.83l.84-.9.34-.37c.33-.37,1-1.11,1.62-1.87.48-.55.88-1.11,1.21-1.53l.53-.71s-.94,1-1.92,2-2,1.86-2,1.86a5.42,5.42,0,0,1,.24-1.55,5,5,0,0,1,1-1.92,8.5,8.5,0,0,1,4.22-2.19,18.32,18.32,0,0,1-.46,2,9.77,9.77,0,0,1-.64,1.75,6.54,6.54,0,0,1-1,1.52,2.94,2.94,0,0,1-2.61,1l-.44.52-.85,1c0,1.59,0,3.19-.13,4.8q-.06.95-.15,1.89l1-.81.49-.43c.39-.36,1.05-1,1.69-1.59,1-1,2-2,2-2s-1.08.9-2.15,1.75c-.52.42-1.08.83-1.5,1.13l-.7.5a5.56,5.56,0,0,1,1.6-3.32,8.49,8.49,0,0,1,4.44-1.71s0,.22-.16.58-.3.85-.53,1.39a8.18,8.18,0,0,1-2,3.06A2.93,2.93,0,0,1,139,62l-.5.47-1,.88q-.31,3-.88,6l1-.72.36-.26.47-.34c.42-.32,1-.74,1.54-1.19,1.09-.88,2.18-1.83,2.18-1.83s-1.16.79-2.31,1.52c-.57.37-1.16.72-1.61,1l-.74.42a5.52,5.52,0,0,1,1.92-3.14,7.11,7.11,0,0,1,3-1.14,9.35,9.35,0,0,1,1.61-.13l-.21.57c-.15.34-.38.82-.66,1.33a8.16,8.16,0,0,1-2.3,2.85,2.94,2.94,0,0,1-2.76.42l-.54.41-1.06.79q-.59,2.89-1.43,5.75l1.08-.6.38-.22.51-.3c.44-.28,1.07-.64,1.65-1,1.17-.78,2.35-1.61,2.35-1.61s-1.23.67-2.45,1.28c-.6.31-1.22.61-1.69.82l-.79.35a5.53,5.53,0,0,1,2.23-2.94,7.05,7.05,0,0,1,3.06-.84,9.26,9.26,0,0,1,1.62,0l-.27.54c-.18.33-.46.78-.79,1.27a8.22,8.22,0,0,1-2.57,2.61,2.93,2.93,0,0,1-2.78.14l-.58.35-1.11.66v.06q-.93,3-2.13,5.81l1.15-.5.52-.23,2.17-1c1.24-.65,2.5-1.37,2.5-1.37s-1.29.55-2.56,1c-.63.25-1.3.47-1.78.64l-.81.26a6.62,6.62,0,0,1,.83-1.33A4.57,4.57,0,0,1,136.54,78a8.59,8.59,0,0,1,4.75-.32,5.89,5.89,0,0,1-.33.51c-.22.31-.54.73-.92,1.18a8.12,8.12,0,0,1-2.83,2.33,3,3,0,0,1-2.78-.15l-.61.29-.94.45-.25.11c-.74,1.71-1.54,3.39-2.41,5l1.2-.38.42-.15.55-.19c.49-.18,1.18-.41,1.82-.68,1.3-.53,2.62-1.12,2.62-1.12s-1.34.42-2.66.78c-.65.19-1.31.35-1.82.47l-.83.19a5.5,5.5,0,0,1,2.75-2.45,7.12,7.12,0,0,1,3.17-.22,8.73,8.73,0,0,1,1.58.35,11.61,11.61,0,0,1-1.39,1.56,8.22,8.22,0,0,1-3,2.06,2.93,2.93,0,0,1-2.76-.42l-.64.24-1,.36-.26.08c-.43.8-.87,1.59-1.33,2.37-.67,1.12-1.37,2.22-2.1,3.29.22,0,.72-.13,1.22-.25l.51-.11,2.37-.6c.69-.18,1.36-.39,1.87-.55l.85-.27s-1.36.27-2.71.49-2.72.36-2.72.36a5.48,5.48,0,0,1,3-2.13,8.42,8.42,0,0,1,4.72.65,16.14,16.14,0,0,1-1.56,1.39,8.12,8.12,0,0,1-3.24,1.71,2.94,2.94,0,0,1-2.69-.7l-.65.17c-.5.12-1,.22-1.28.28q-1.87,2.7-4,5.16l1.26-.11.65-.08c.52-.07,1.39-.19,2.28-.33.7-.12,1.42-.23,1.94-.34l.87-.18s-1.37.14-2.77.19-2.73.07-2.73.07A5.43,5.43,0,0,1,127,96.63a8.39,8.39,0,0,1,4.61,1.14A17.88,17.88,0,0,1,129.88,99a8.54,8.54,0,0,1-3.41,1.35,2.92,2.92,0,0,1-2.59-1l-.68.08-1.3.15c-.79.91-1.59,1.79-2.41,2.65-.6.62-1.2,1.21-1.81,1.8l1.25,0h.46c.15,0,.34,0,.57,0l1.92-.09,2-.14.89-.09h-.87l-1.91-.09c-1.38-.07-2.71-.19-2.71-.19a5.28,5.28,0,0,1,3.37-1.47,8.43,8.43,0,0,1,4.47,1.6,16.91,16.91,0,0,1-1.8,1.06,8.78,8.78,0,0,1-3.53,1,2.91,2.91,0,0,1-2.48-1.25l-.69,0-1.29,0a62.92,62.92,0,0,1-5.69,4.8l1.23.16.51.05c.5,0,1.47.14,2.46.21,1.4.07,2.84.09,2.84.09s-1.39-.18-2.73-.41-2.69-.54-2.69-.54a5.75,5.75,0,0,1,1.4-.72,4.48,4.48,0,0,1,2.13-.32,6.83,6.83,0,0,1,3,1.15,9.18,9.18,0,0,1,1.28,1,4.23,4.23,0,0,1-.54.27c-.35.16-.83.36-1.38.55a12.5,12.5,0,0,1-1.8.5,6.27,6.27,0,0,1-1.82.07,2.92,2.92,0,0,1-2.32-1.54l-.68,0c-.5,0-1-.09-1.29-.13a68.9,68.9,0,0,1-6.05,4l1.2.31.41.11.6.12,1.89.36,1.94.33.88.12-.83-.21-1.84-.54c-1.32-.39-2.59-.83-2.59-.83a5.28,5.28,0,0,1,3.63-.62,8.38,8.38,0,0,1,4,2.61,18.19,18.19,0,0,1-2,.6,8.91,8.91,0,0,1-3.66.14,2.92,2.92,0,0,1-2.12-1.8l-.68-.15-1.25-.28a65.49,65.49,0,0,1-6.5,3.24l1.16.44.58.2c.5.18,1.36.47,2.24.74,1.34.4,2.74.77,2.74.77s-1.3-.51-2.56-1c-.62-.26-1.25-.56-1.71-.78l-.77-.37a6.79,6.79,0,0,1,1.52-.38,4.71,4.71,0,0,1,2.16.19,7.2,7.2,0,0,1,2.61,1.81,9.46,9.46,0,0,1,1,1.26l-.59.15a14.92,14.92,0,0,1-1.48.2,8.15,8.15,0,0,1-3.65-.29,3,3,0,0,1-1.89-2l-.65-.22-1-.33-.24-.09-.08,0c-2.06.86-4,1.57-6,2.16l1.12.57.47.22c.45.22,1.33.62,2.23,1,.66.3,1.31.54,1.81.73l.84.32s-1.25-.63-2.43-1.3-2.36-1.42-2.36-1.42a5.92,5.92,0,0,1,1.56-.21,4.83,4.83,0,0,1,2.12.42,8.51,8.51,0,0,1,3.29,3.45,18,18,0,0,1-2.09.12,12,12,0,0,1-1.86-.14,6.29,6.29,0,0,1-1.75-.55,2.92,2.92,0,0,1-1.66-2.22l-.62-.28c-.34-.15-.69-.32-1-.45l-.22-.12c-2.12.64-4.12,1.12-6,1.49.18.12.62.41,1.06.68l.44.27c.43.26,1.26.75,2.12,1.23.62.36,1.25.68,1.72.92l.8.4S90.15,123.82,89,123s-2.2-1.64-2.2-1.64a5.51,5.51,0,0,1,3.64.58,8.44,8.44,0,0,1,2.92,3.76,17.23,17.23,0,0,1-2.09-.09,8.3,8.3,0,0,1-3.52-1.05,2.9,2.9,0,0,1-1.42-2.38l-.59-.34c-.45-.26-.88-.54-1.12-.69-2,.38-3.74.63-5.29.8l-1.33.12,1,.81.41.32c.4.3,1.17.87,2,1.44.58.41,1.17.83,1.62,1.12l.75.48s-1.08-.86-2.1-1.81-2-1.86-2-1.86a5.38,5.38,0,0,1,3.55,1,8.43,8.43,0,0,1,2.48,4,16.3,16.3,0,0,1-2.07-.3,8.69,8.69,0,0,1-3.37-1.43,2.9,2.9,0,0,1-1.16-2.52l-.55-.42c-.4-.31-.79-.63-1-.8-1.4.11-2.56.18-3.42.18l-1.88,0V122Z" fill="#b49257"/><path d="M109,67a.59.59,0,0,0,0-.13L97.78,33v0s0,0,0,0,0,0,0-.06h0a.5.5,0,0,0-.14-.15v0a.42.42,0,0,0-.18-.08H73.63v-3.9a4.86,4.86,0,1,0-2.85,0v3.9H47a.38.38,0,0,0-.17.08l0,0a.47.47,0,0,0-.13.15h0l0,.06s0,0,0,0v0L35.45,66.9a.3.3,0,0,0,0,.13h0a.58.58,0,0,0,.06.26c.68,2.85,2.67,4.93,5,4.93H53.73c2.35,0,4.34-2.08,5-4.93a.58.58,0,0,0,.06-.26h0a.3.3,0,0,0,0-.13L48.3,34.9l22.48,5.47V67.46l-5.7,17.59h-7a3.79,3.79,0,0,0-3.79,3.79v.27H90.09v-.27a3.79,3.79,0,0,0-3.8-3.79h-7l-5.7-17.58V40.37L96.1,34.9l-10.49,32a.59.59,0,0,0,0,.13h0a.59.59,0,0,0,.07.26c.68,2.85,2.66,4.93,5,4.93h13.21c2.36,0,4.34-2.08,5-4.93A.58.58,0,0,0,109,67ZM46.57,67h-10l10-30.31Zm11.1,0H47.73V36.71ZM72.2,27.13a3,3,0,1,1,3-3A3,3,0,0,1,72.2,27.13ZM86.73,67l9.94-30.3V67Zm11.1,0V36.71l10,30.32Z" fill="#fff"/></g></g></svg>