<svg xmlns="http://www.w3.org/2000/svg" viewBox="0 0 256.67 134.71"><title>logo</title><g id="b2a83b47-aeb3-4549-90a9-8034a8e70067" data-name="Layer 2"><g id="a2e14dc7-c319-4150-a47b-75de9782ff97" data-name="Layer 11"><polygon points="63.15 9.68 64.18 4.94 67.06 4.94 67.06 0 30.61 0 30.61 4.94 33.48 4.94 34.52 9.68 38.43 9.68 38.43 124 34.52 124 33.48 128.74 30.61 128.74 30.61 133.68 67.06 133.68 67.06 128.74 64.18 128.74 63.15 124 59.24 124 59.24 9.68 63.15 9.68" fill="#fff"/><polygon points="221.96 9.68 222.99 4.94 225.87 4.94 225.87 0 189.41 0 189.41 4.94 192.29 4.94 193.32 9.68 197.24 9.68 197.24 124 193.32 124 192.29 128.74 189.41 128.74 189.41 133.68 225.87 133.68 225.87 128.74 222.99 128.74 221.96 124 218.04 124 218.04 9.68 221.96 9.68" fill="#fff"/><rect x="66.24" y="92.53" width="124" height="5.15" fill="#fff"/><polygon points="0 97.68 31.72 92.12 31.75 97.73 0 97.68" fill="#fff"/><polygon points="256.67 97.68 224.95 92.12 224.93 97.73 256.67 97.68" fill="#fff"/><path d="M76.65,109.15A2.21,2.21,0,0,1,73.37,111v-.11s1.85.4,2.36-1.21a2.25,2.25,0,0,0,.07-.68c0-1-.56-1.73-1.51-1.73H73V114a.73.73,0,0,0,.72.71h.14v.11H71.39v-.11h.14a.71.71,0,0,0,.72-.71h0v-6.3a.71.71,0,0,0-.71-.65h-.15V107h2.94A2.08,2.08,0,0,1,76.65,109.15Z" fill="#fff"/><path d="M84.07,113l-.65,1.82H78.75v-.11h.14a.71.71,0,0,0,.72-.71v-6.31a.72.72,0,0,0-.71-.64h-.15V107H82a4.86,4.86,0,0,0,1.34-.21v.52h0v.9h-.11V108a.67.67,0,0,0-.63-.67h-2.3v3.48h1.91a.55.55,0,0,0,.54-.55v-.17h.11v1.78h-.11v-.17a.55.55,0,0,0-.53-.55H80.34v3.37H82A1.94,1.94,0,0,0,84,113Z" fill="#fff"/><path d="M93.12,114.75v.11H92.5a2.41,2.41,0,0,1-2-1c-.13-.15-1.4-2-1.49-2.11-.29-.37-.62-.76-1-.76v-.1h.59a1.7,1.7,0,0,0,1.76-1.17,2.25,2.25,0,0,0,.07-.68c0-1-.56-1.67-1.39-1.72-.58,0-1.26,0-1.41,0V114a.73.73,0,0,0,.72.71h.15v.11H86.05v-.11h.14a.72.72,0,0,0,.72-.71V107.8h0a.71.71,0,0,0-.72-.71h-.14V107h3a2,2,0,0,1,2.2,2.11,2.09,2.09,0,0,1-1.92,2.15,2.62,2.62,0,0,1,.81.79s1,1.39,1.41,1.86A2,2,0,0,0,93.12,114.75Z" fill="#fff"/><path d="M98.4,112.91A2,2,0,0,1,96.29,115a2.94,2.94,0,0,1-1.91-.62,3.53,3.53,0,0,1,.13-1.57h.1a1.54,1.54,0,0,0,1.63,1.85,1.5,1.5,0,0,0,1.5-1.51,1.38,1.38,0,0,0-.44-1l-2.16-2a1.92,1.92,0,0,1-.61-1.4,1.89,1.89,0,0,1,2-1.9,5.34,5.34,0,0,1,1,.11h.45v1.39h-.11a1.16,1.16,0,0,0-1.27-1.16,1.32,1.32,0,0,0-1.39,1.29,1.42,1.42,0,0,0,.46,1l2.21,2.05A1.78,1.78,0,0,1,98.4,112.91Z" fill="#fff"/><path d="M108.84,110.92a4.05,4.05,0,1,1-4-4.1A3.87,3.87,0,0,1,108.84,110.92Zm-.87,0c0-2.26-1.27-3.76-3.18-3.76s-3.18,1.5-3.18,3.76,1.27,3.76,3.18,3.76S108,113.17,108,110.92Z" fill="#fff"/><path d="M119.05,107.09h-.21a.69.69,0,0,0-.69.67v5.82a12,12,0,0,0,.1,1.44h-.1L112,108.47v5.6a.69.69,0,0,0,.69.68h.21v.11h-2.32v-.11h.21a.71.71,0,0,0,.7-.69v-5.85a9.08,9.08,0,0,0-.11-1.4h.12l6.13,6.54v-5.59h0a.7.7,0,0,0-.7-.68h-.21V107h2.32Z" fill="#fff"/><path d="M128.45,114.75v.11h-2.54v-.11h.1a.48.48,0,0,0,.43-.71l-.72-1.92h-3l-.75,1.93a.48.48,0,0,0,.43.7h.1v.11h-2.27v-.11h.1a1.12,1.12,0,0,0,1-.71l2.55-6.06a5.86,5.86,0,0,0,.42-1.16h.1l3,7.22a1.13,1.13,0,0,0,1,.71Zm-2.86-3-1.36-3.61-1.41,3.61Z" fill="#fff"/><path d="M135.24,113l-.65,1.82h-4.67v-.11h.14a.71.71,0,0,0,.72-.71V107.8h0a.71.71,0,0,0-.72-.71h-.14V107h2.46v.11h-.14a.71.71,0,0,0-.72.71v6.71h1.61a1.94,1.94,0,0,0,2-1.47Z" fill="#fff"/><path d="M143.36,114.86h-2.47v-.11H141a.73.73,0,0,0,.72-.71v-6.25a.72.72,0,0,0-.72-.7h-.15V107h2.47v.11h-.14a.72.72,0,0,0-.72.7V114a.73.73,0,0,0,.72.71h.14Z" fill="#fff"/><path d="M153.9,107.09h-.2a.7.7,0,0,0-.7.67v5.82a12,12,0,0,0,.1,1.44H153l-6.15-6.55v5.6a.7.7,0,0,0,.69.68h.21v.11h-2.31v-.11h.2a.71.71,0,0,0,.7-.69v-5.85a10,10,0,0,0-.1-1.4h.11l6.13,6.54v-5.59h0a.7.7,0,0,0-.7-.68h-.2V107h2.33Z" fill="#fff"/><path d="M158.47,107v.11h-.15a.72.72,0,0,0-.72.7v7.07a2.13,2.13,0,0,1-2,2.25V117a2.35,2.35,0,0,0,1.32-2.18v-7a.72.72,0,0,0-.72-.71H156V107h2.47Z" fill="#fff"/><path d="M168.17,107v.11H168a.58.58,0,0,0-.6.53v4.45a2.82,2.82,0,0,1-3,3,2.86,2.86,0,0,1-3.13-2.93v-4.44h0a.57.57,0,0,0-.59-.56h-.19V107h2.29v.11h-.18a.58.58,0,0,0-.6.54v4.3a2.44,2.44,0,0,0,2.4,2.73,2.4,2.4,0,0,0,2.5-2.59v-4.44a.58.58,0,0,0-.6-.54h-.18V107h2.08Z" fill="#fff"/><path d="M177.25,114.75v.11h-.62a2.41,2.41,0,0,1-2-1c-.13-.15-1.4-2-1.49-2.11-.29-.37-.62-.76-1-.76v-.1h.59a1.7,1.7,0,0,0,1.76-1.17,2.25,2.25,0,0,0,.07-.68c0-1-.56-1.67-1.39-1.72-.58,0-1.26,0-1.41,0V114a.73.73,0,0,0,.72.71h.15v.11h-2.46v-.11h.14A.72.72,0,0,0,171,114V107.8h0a.71.71,0,0,0-.72-.71h-.14V107h3a2,2,0,0,1,2.2,2.11,2.09,2.09,0,0,1-1.92,2.15,2.62,2.62,0,0,1,.81.79s1,1.39,1.41,1.86A2,2,0,0,0,177.25,114.75Z" fill="#fff"/><path d="M184.82,107v.11h-.16a1.46,1.46,0,0,0-1.13.65l-2.23,3.6V114a.73.73,0,0,0,.73.71h.14v.11h-2.46v-.11h.14a.73.73,0,0,0,.72-.71v-2.71l-2.14-3.58a1.41,1.41,0,0,0-1.13-.66h-.16V107h2.77v.11h-.14a.47.47,0,0,0-.39.7l1.68,3.15,1.8-3.15h0a.47.47,0,0,0-.4-.69h-.14V107Z" fill="#fff"/><path d="M91.3,46.12c1.32,1.43,2.52,2.44,4.44,2.46v.33H94a7,7,0,0,1-5.69-2.86c-.37-.44-4-5.78-4.29-6.1-.85-1.07-1.8-2.2-3-2.2v-.3s.74,0,1.72,0c1.69,0,4.16-.45,5.09-3.38a6.92,6.92,0,0,0,.2-2c-.08-2.95-1.61-4.83-4-5-1.66-.09-3.63,0-4,0V46.53h0a2.08,2.08,0,0,0,2.08,2h.42v.33H75.28v-.33h.41a2.08,2.08,0,0,0,2.09-2V28.47h0a2.09,2.09,0,0,0-2.09-2h-.41V26.1h8.79c4,0,6.37,2.33,6.37,6.13,0,3.15-2.4,6.21-5.54,6.21a7.85,7.85,0,0,1,2.33,2.29s2.81,4,4.07,5.39Z" fill="#fff"/><path d="M104.72,48.91H97.34v-.33h.43A2.05,2.05,0,0,0,100,46.82V31.45h0a2.05,2.05,0,0,0-2.22-1.76h-.43v-.33h7.38v.33h-.44a2.06,2.06,0,0,0-2.21,1.7V46.84a2.05,2.05,0,0,0,2.21,1.74h.44Z" fill="#fff"/><path d="M130.76,39.13c0,6.06-4.91,10.23-11,10.23s-11-4.17-11-10.23,4.91-10.23,11-10.23S130.76,33.08,130.76,39.13Zm-2.41,0c0-5.5-3.79-9.25-8.58-9.25s-8.58,3.75-8.58,9.25,3.79,9.26,8.58,9.26S128.35,44.64,128.35,39.13Z" fill="#fff"/><path d="M141,49.36c-1.94,0-4.44-.47-5.62-1.53a8.83,8.83,0,0,1,.32-4h.37c-.28,2.94,1.69,4.69,4.57,4.61,2.69-.08,4.34-1.48,4.34-3.6a3.21,3.21,0,0,0-1.19-2.58l-6.52-5a4.52,4.52,0,0,1-1.55-3.52c0-2.65,2.37-4.76,5.38-4.76a14.07,14.07,0,0,1,3.23.31h1.09v.33h0l0,3.21h-.37c0-1.81-1.21-2.88-3.76-2.88-2.18,0-3.93,1.37-3.92,3.11a3.14,3.14,0,0,0,1.28,2.56l6.6,5.08a4.65,4.65,0,0,1,1.47,3.5A5.48,5.48,0,0,1,141,49.36Z" fill="#fff"/><path d="M182.79,51.42v.33a10.21,10.21,0,0,1-7-1.94,8.37,8.37,0,0,1-6,2.26c-6.37,0-10-2.78-10-7.63a6.49,6.49,0,0,1,3.94-6,7.94,7.94,0,0,1-1.24-4.36c0-3.19,2.55-5.59,6.56-5.59a7.5,7.5,0,0,1,5.52,2.32L174,34.48h-.32c0-3.12-1.86-5-4.63-5a4.33,4.33,0,0,0-4.31,4.61c0,2.74,1.81,4.81,5.17,7.82,1.37,1.22,3.16,2.9,5.91,5.18a7.25,7.25,0,0,0,0-6,2.28,2.28,0,0,0-2.1-1.49h-.51v-.32h6.51v.32h-.49A1.12,1.12,0,0,0,178,41a10.35,10.35,0,0,1-1,7.1C178.83,49.64,180.72,51.26,182.79,51.42Zm-13-.34a6.33,6.33,0,0,0,4.9-2.19c-2.73-2.25-4.54-3.83-6.25-5.4a33,33,0,0,1-4.15-4.29,6.86,6.86,0,0,0-2.1,5.24c0,3.92,2.74,6.64,7.6,6.64Z" fill="#fff"/><path d="M81.23,61c0,5-5.39,7.61-9.47,5.46v-.31s5.36,1.15,6.83-3.51a6.64,6.64,0,0,0,.21-2c-.08-3-1.62-5-4.39-5H70.64V75.12a2.09,2.09,0,0,0,2.09,2h.41v.32H66v-.32h.41a2.09,2.09,0,0,0,2.09-2h0V56.89A2.09,2.09,0,0,0,66.44,55H66v-.32h8.48C78.68,54.69,81.23,57.08,81.23,61Z" fill="#fff"/><path d="M102,77.17v.32h-6.7v-.32h.26a1.34,1.34,0,0,0,1.15-2L95,70.88H86.71l-1.79,4.24c-.5,1.31.36,2,1.12,2h.26v.32H80.09v-.32h.26a3,3,0,0,0,2.55-1.88l6.75-14.44a18.82,18.82,0,0,0,1.25-3.36h.31l8,17.78a3,3,0,0,0,2.52,1.9ZM94.55,69.9,90.89,61,87.13,69.9Z" fill="#fff"/><path d="M119.06,74.69c1.32,1.49,2.24,2.46,4,2.48v.32h-1a6.92,6.92,0,0,1-6-2.86c-.37-.45-2.94-4.15-3.2-4.47-.88-1.1-2-2.19-3.3-2.19v-.3s.81,0,1.87,0c1.8,0,3.86-.06,4.79-2.8a5.49,5.49,0,0,0,.23-1.85c-.07-2.44-1.71-3.88-4.34-4-1.83-.09-3.43,0-3.74,0V75.4a1.8,1.8,0,0,0,1.85,1.77h.44v.32H104v-.32h.44a1.81,1.81,0,0,0,1.85-1.72V60a1.77,1.77,0,0,0-1.85-1.7H104V58h8.17c4.11,0,6.62,2,6.62,5.27a5.47,5.47,0,0,1-5.06,5.37,9,9,0,0,1,2.51,2.55s1.5,2,2.85,3.55Z" fill="#fff"/><path d="M144.7,77.17v.32H138v-.32h.26a1.35,1.35,0,0,0,1.15-2l-1.78-4.33H129.4l-1.8,4.24c-.49,1.31.36,2,1.12,2H129v.32h-6.21v-.32H123a3,3,0,0,0,2.56-1.88l6.74-14.44a18.06,18.06,0,0,0,1.25-3.36h.31l8.05,17.78a2.93,2.93,0,0,0,2.51,1.9Zm-7.46-7.27L133.58,61l-3.77,8.91Z" fill="#fff"/><path d="M168,67.73c0,6-4.05,9.76-10.48,9.76H146.66v-.32h.44a1.81,1.81,0,0,0,1.82-1.77V60a1.8,1.8,0,0,0-1.86-1.76h-.4v-.33h10.86C164,58,168,61.66,168,67.73ZM157.54,76.5c5,0,8.1-3.33,8.1-8.77s-3.1-8.8-8.1-8.8H151V76.5Z" fill="#fff"/><path d="M191.23,77.17v.32h-6.7v-.32h.26a1.35,1.35,0,0,0,1.16-2l-1.78-4.33h-8.25l-1.79,4.24c-.5,1.31.36,2,1.12,2h.26v.32H169.3v-.32h.26a3,3,0,0,0,2.55-1.88l6.75-14.44a18.06,18.06,0,0,0,1.25-3.36h.31l8.05,17.78a2.93,2.93,0,0,0,2.51,1.9Zm-7.47-7.27L180.1,61l-3.76,8.91Z" fill="#fff"/><path d="M74.61,134.55H72.15v-.11h.14a.73.73,0,0,0,.73-.71v-6.25a.72.72,0,0,0-.73-.7h-.14v-.11h2.46v.11h-.14a.72.72,0,0,0-.72.7v6.25a.72.72,0,0,0,.72.71h.14Z" fill="#fff"/><path d="M89,134.44v.11H86.53v-.11h.18a.48.48,0,0,0,.44-.48.11.11,0,0,0,0-.05l-.5-5.61-2.37,5.26a6,6,0,0,0-.39,1.15h-.1l-2.88-6.25-.49,5.45h0v0a.48.48,0,0,0,.44.48H81v.11H78.84v-.11H79a.8.8,0,0,0,.82-.71l.84-7.22h.11l3.14,6.79L87,126.51h.11l.87,7.22a.8.8,0,0,0,.82.71Z" fill="#fff"/><path d="M102.85,134.44v.11H100.4v-.11h.18A.48.48,0,0,0,101,134v-.05l-.51-5.61-2.37,5.26a6,6,0,0,0-.39,1.15h-.1l-2.88-6.25-.49,5.45h0v0a.48.48,0,0,0,.44.48h.18v.11H92.71v-.11h.18a.8.8,0,0,0,.82-.71l.84-7.22h.11l3.14,6.79,3.07-6.79H101l.87,7.22a.8.8,0,0,0,.82.71Z" fill="#fff"/><path d="M109.55,134.55h-2.47v-.11h.15a.73.73,0,0,0,.72-.71v-6.25a.72.72,0,0,0-.72-.7h-.15v-.11h2.47v.11h-.14a.72.72,0,0,0-.72.7v6.25a.73.73,0,0,0,.72.71h.14Z" fill="#fff"/><path d="M121.35,133.26a4,4,0,0,1-3.26,1.45,4.1,4.1,0,0,1,0-8.2,4.74,4.74,0,0,1,2.73.76l.23,1.59H121a2.69,2.69,0,0,0-2.86-2c-1.91,0-3.2,1.5-3.2,3.76s1.29,3.75,3.2,3.76a3.72,3.72,0,0,0,2.53-1v-2c0-.33-.21-.52-.58-.52h-.17v-.11h2.2v.11h-.17c-.36,0-.57.19-.56.51Z" fill="#fff"/><path d="M133.21,134.44v.11h-.62a2.45,2.45,0,0,1-2-1c-.12-.15-1.39-2-1.48-2.11-.29-.37-.62-.76-1-.76v-.1h.59a1.7,1.7,0,0,0,1.76-1.17,2.25,2.25,0,0,0,.07-.68c0-1-.56-1.67-1.4-1.71-.57,0-1.25,0-1.4,0v6.71a.73.73,0,0,0,.72.71h.15v.11h-2.46v-.11h.14a.73.73,0,0,0,.72-.71v-6.24h0a.71.71,0,0,0-.72-.71h-.14v-.11h3a2,2,0,0,1,2.21,2.11,2.09,2.09,0,0,1-1.92,2.15,2.73,2.73,0,0,1,.81.79s1,1.39,1.41,1.86A2,2,0,0,0,133.21,134.44Z" fill="#fff"/><path d="M144.27,134.44v.11h-2.53v-.11h.1a.48.48,0,0,0,.42-.71l-.72-1.92h-3l-.75,1.93a.48.48,0,0,0,.43.7h.1v.11H136v-.11h.1a1.13,1.13,0,0,0,1-.71l2.55-6.06a5.86,5.86,0,0,0,.42-1.16h.1l3,7.22a1.12,1.12,0,0,0,1,.71Zm-2.85-3-1.36-3.61-1.42,3.61Z" fill="#fff"/><path d="M153.49,126.45v1.42h-.12v-.2a.67.67,0,0,0-.64-.67H150.6v6.75a.72.72,0,0,0,.72.7h.14v.11H149v-.11h.14a.72.72,0,0,0,.72-.69V127h-2.13a.67.67,0,0,0-.64.67v.2H147v-1.42a4.78,4.78,0,0,0,1.36.2h3.8A4.78,4.78,0,0,0,153.49,126.45Z" fill="#fff"/><path d="M160.23,134.55h-2.46v-.11h.14a.71.71,0,0,0,.72-.71v-6.25a.72.72,0,0,0-.72-.7h-.14v-.11h2.46v.11h-.14a.71.71,0,0,0-.72.7v6.25a.71.71,0,0,0,.72.71h.14Z" fill="#fff"/><path d="M172.94,130.61a4.05,4.05,0,1,1-4.05-4.1A3.87,3.87,0,0,1,172.94,130.61Zm-.86,0c0-2.26-1.28-3.76-3.19-3.76s-3.18,1.5-3.18,3.76,1.27,3.76,3.18,3.76S172.08,132.86,172.08,130.61Z" fill="#fff"/><path d="M185.62,126.78h-.21a.69.69,0,0,0-.69.67v5.82a11.78,11.78,0,0,0,.1,1.44h-.1l-6.15-6.55v5.6a.69.69,0,0,0,.69.68h.21v.11h-2.32v-.11h.21a.71.71,0,0,0,.7-.69V127.9a9.25,9.25,0,0,0-.11-1.4h.12l6.13,6.54v-5.59h0a.68.68,0,0,0-.69-.68h-.21v-.11h2.32Z" fill="#fff"/><path d="M72.49,88.67v.08h-1.8v-.08h.07a.34.34,0,0,0,.3-.5l-.51-1.36H68.4l-.53,1.36a.34.34,0,0,0,.3.5h.07v.08h-1.6v-.08h.07a.79.79,0,0,0,.7-.51l1.81-4.29a4.37,4.37,0,0,0,.29-.82h.07l2.14,5.11a.78.78,0,0,0,.7.51Zm-2-2.1L69.5,84l-1,2.56Z" fill="#fff"/><path d="M77.81,83v1h-.08v-.14a.48.48,0,0,0-.46-.48H75.76v4.78a.51.51,0,0,0,.51.5h.1v.08H74.63v-.08h.1a.52.52,0,0,0,.51-.49V83.39H73.73a.48.48,0,0,0-.46.48V84h-.08V83a3.56,3.56,0,0,0,1,.14h2.7A3.56,3.56,0,0,0,77.81,83Z" fill="#fff"/><path d="M84.05,83v1H84v-.14a.47.47,0,0,0-.45-.48H82v4.78a.52.52,0,0,0,.52.5h.1v.08H80.87v-.08H81a.51.51,0,0,0,.51-.49V83.39H80a.47.47,0,0,0-.45.48V84h-.08V83a3.43,3.43,0,0,0,1,.14h2.69A3.5,3.5,0,0,0,84.05,83Z" fill="#fff"/><path d="M91.5,86a2.87,2.87,0,1,1-2.87-2.9A2.75,2.75,0,0,1,91.5,86Zm-.62,0c0-1.6-.9-2.66-2.25-2.66S86.37,84.35,86.37,86s.9,2.67,2.26,2.67S90.88,87.55,90.88,86Z" fill="#fff"/><path d="M97.32,88.06a1.49,1.49,0,0,0,1.09.61v.08H98a1.71,1.71,0,0,1-1.39-.7c-.09-.11-1-1.42-1-1.5-.21-.26-.44-.54-.73-.54v-.07h.42a1.19,1.19,0,0,0,1.24-.83,1.36,1.36,0,0,0,.05-.48c0-.72-.39-1.18-1-1.22-.4,0-.89,0-1,0v4.75a.51.51,0,0,0,.51.51h.1v.08H93.4v-.08h.1a.51.51,0,0,0,.51-.5V83.74a.5.5,0,0,0-.51-.5h-.1v-.08h2.15a1.41,1.41,0,0,1,1.56,1.5,1.48,1.48,0,0,1-1.35,1.52,2,2,0,0,1,.57.56s.69,1,1,1.32Z" fill="#fff"/><path d="M105.63,83.24h-.15a.5.5,0,0,0-.49.48v4.12a8.6,8.6,0,0,0,.07,1H105l-4.36-4.65v4a.5.5,0,0,0,.49.48h.15v.08H99.64v-.08h.14a.51.51,0,0,0,.5-.49V84a6.38,6.38,0,0,0-.08-1h.09l4.34,4.63v-4a.5.5,0,0,0-.49-.48H104v-.08h1.64Z" fill="#fff"/><path d="M111.35,87.46l-.46,1.29h-3.31v-.08h.1a.51.51,0,0,0,.51-.51V83.7a.51.51,0,0,0-.51-.46h-.1v-.08h2.33a3,3,0,0,0,1-.15v.37h0V84h-.08v-.14a.48.48,0,0,0-.44-.48h-1.63v2.47h1.35a.4.4,0,0,0,.39-.39v-.12h.07v1.26h-.07V86.5a.4.4,0,0,0-.38-.39h-1.36V88.5h1.15a1.37,1.37,0,0,0,1.41-1Z" fill="#fff"/><path d="M118.26,83.16v.08h-.11a1.06,1.06,0,0,0-.81.46l-1.57,2.55v1.91a.51.51,0,0,0,.51.51h.1v.08h-1.75v-.08h.1a.52.52,0,0,0,.51-.5V86.25l-1.52-2.54a1,1,0,0,0-.8-.47h-.11v-.08h2v.08h-.1a.33.33,0,0,0-.28.49L115.6,86l1.27-2.24h0a.34.34,0,0,0-.28-.49h-.1v-.08Z" fill="#fff"/><path d="M122.7,87.36a1.41,1.41,0,0,1-1.49,1.5,2,2,0,0,1-1.35-.44,2.45,2.45,0,0,1,.09-1.11H120a1.09,1.09,0,0,0,1.15,1.31,1.06,1.06,0,0,0,1.07-1.07,1,1,0,0,0-.32-.75l-1.52-1.41a1.35,1.35,0,0,1,1-2.34,3.23,3.23,0,0,1,.68.08h.32v1h-.08a.83.83,0,0,0-.9-.82.93.93,0,0,0-1,.91,1,1,0,0,0,.32.74l1.57,1.45A1.26,1.26,0,0,1,122.7,87.36Z" fill="#fff"/><path d="M133.31,88.67v.08h-1.8v-.08h.07a.34.34,0,0,0,.3-.5l-.51-1.36h-2.15l-.53,1.36a.34.34,0,0,0,.3.5h.08v.08h-1.61v-.08h.07a.79.79,0,0,0,.7-.51L130,83.87a4.28,4.28,0,0,0,.3-.82h.07l2.13,5.11a.79.79,0,0,0,.7.51Zm-2-2.1-1-2.56-1,2.56Z" fill="#fff"/><path d="M138.63,83v1h-.08v-.14a.47.47,0,0,0-.45-.48h-1.52v4.78a.52.52,0,0,0,.51.5h.11v.08h-1.75v-.08h.1a.51.51,0,0,0,.51-.49V83.39h-1.51a.48.48,0,0,0-.46.48V84H134V83a3.58,3.58,0,0,0,1,.14h2.69A3.5,3.5,0,0,0,138.63,83Z" fill="#fff"/><path d="M147.42,87.46,147,88.75h-3.31v-.08h.1a.51.51,0,0,0,.51-.51V83.74a.5.5,0,0,0-.51-.5h-.1v-.08h1.74v.08h-.1a.51.51,0,0,0-.51.5V88.5h1.15a1.37,1.37,0,0,0,1.41-1Z" fill="#fff"/><path d="M154.62,88.67v.08h-1.8v-.08h.07a.34.34,0,0,0,.3-.5l-.51-1.36h-2.15L150,88.17a.34.34,0,0,0,.3.5h.07v.08h-1.6v-.08h.07a.79.79,0,0,0,.7-.51l1.81-4.29a4.37,4.37,0,0,0,.29-.82h.08l2.13,5.11a.78.78,0,0,0,.7.51Zm-2-2.1-1-2.56-1,2.56Z" fill="#fff"/><path d="M163,83.16v.08h-.07a.76.76,0,0,0-.7.49L160.87,88a4,4,0,0,0-.17.89h-.08L159,84.28,157.78,88a4.6,4.6,0,0,0-.17.89h-.07l-1.81-5.11a.77.77,0,0,0-.7-.49H155v-.08h1.78v.08h-.07a.34.34,0,0,0-.31.49l1.2,3.88L159.05,83h.07l1.58,4.41,1.07-3.74c.07-.3-.1-.47-.31-.47h-.07v-.08Z" fill="#fff"/><path d="M171.47,84.7A1.57,1.57,0,0,1,169.15,86V86s1.31.28,1.67-.86a2.08,2.08,0,0,0,.05-.48c0-.73-.4-1.22-1.08-1.22h-.92v4.76a.53.53,0,0,0,.51.51h.11v.08h-1.75v-.08h.1a.51.51,0,0,0,.51-.51V83.7a.5.5,0,0,0-.51-.46h-.1v-.08h2.08A1.48,1.48,0,0,1,171.47,84.7Z" fill="#fff"/><path d="M177.27,87.46l-.46,1.29H173.5v-.08h.1a.51.51,0,0,0,.51-.51V83.74a.5.5,0,0,0-.51-.5h-.1v-.08h1.74v.08h-.1a.51.51,0,0,0-.51.5V88.5h1.14a1.38,1.38,0,0,0,1.42-1Z" fill="#fff"/><path d="M182.83,87.46l-.47,1.29h-3.3v-.08h.1a.52.52,0,0,0,.51-.51V83.74a.51.51,0,0,0-.51-.5h-.1v-.08h1.74v.08h-.1a.5.5,0,0,0-.51.5V88.5h1.14a1.39,1.39,0,0,0,1.42-1Z" fill="#fff"/><path d="M189.67,87.67a2.48,2.48,0,0,1-2.25,1.19,2.91,2.91,0,0,1,.05-5.81,3.41,3.41,0,0,1,1.89.54l.16,1.12h-.07a1.9,1.9,0,0,0-2-1.42c-1.4,0-2.3,1.06-2.3,2.65a2.38,2.38,0,0,0,2.25,2.68,2.15,2.15,0,0,0,2.28-2.2h.06Z" fill="#fff"/><polygon points="7.62 82.64 32.75 19 34.81 18.79 8.65 82.03 7.62 82.64" fill="#fff"/><polygon points="248.41 82.64 223.28 19 221.22 18.79 247.38 82.03 248.41 82.64" fill="#fff"/><circle cx="128.71" cy="120.9" r="1.54" fill="#fff"/><path d="M80.41,121.62c2.88,0,42.69-1.75,42.69-1.75v2.06Z" fill="#fff"/><path d="M134.32,121.93l42.69-.31c-2.88,0-42.69-1.75-42.69-1.75" fill="#fff"/><path d="M127.91,17.47c-31,0-56.55-2.22-59.53-5.07a.79.79,0,0,0-.3.56c0,3.11,26.79,5.62,59.83,5.62s59.83-2.51,59.83-5.62a.81.81,0,0,0-.29-.56C184.46,15.25,159,17.47,127.91,17.47Z" fill="#fff"/></g></g></svg>